<svg width="512" height="512" viewBox="0 0 512 512" fill="none" xmlns="http://www.w3.org/2000/svg" role="img" aria-labelledby="title desc">
  <title id="title">gitgud mascot icon</title>
  <desc id="desc">A mascot icon for gitgud with fox-like ears, a cheerful face, and git branch details.</desc>
  <defs>
    <linearGradient id="bg" x1="72" y1="60" x2="440" y2="452" gradientUnits="userSpaceOnUse">
      <stop stop-color="#F8F0DE"/>
      <stop offset="1" stop-color="#DCEBF8"/>
    </linearGradient>
    <linearGradient id="fur" x1="164" y1="144" x2="362" y2="366" gradientUnits="userSpaceOnUse">
      <stop stop-color="#FFB65E"/>
      <stop offset="1" stop-color="#F06A4C"/>
    </linearGradient>
    <linearGradient id="muzzle" x1="190" y1="236" x2="320" y2="336" gradientUnits="userSpaceOnUse">
      <stop stop-color="#FFF7EA"/>
      <stop offset="1" stop-color="#FFE6C9"/>
    </linearGradient>
    <filter id="shadow" x="92" y="98" width="328" height="328" filterUnits="userSpaceOnUse" color-interpolation-filters="sRGB">
      <feFlood flood-opacity="0" result="BackgroundImageFix"/>
      <feColorMatrix in="SourceAlpha" type="matrix" values="0 0 0 0 0 0 0 0 0 0 0 0 0 0 0 0 0 0 127 0" result="hardAlpha"/>
      <feOffset dy="16"/>
      <feGaussianBlur stdDeviation="18"/>
      <feColorMatrix type="matrix" values="0 0 0 0 0.0823529 0 0 0 0 0.137255 0 0 0 0 0.207843 0 0 0 0.2 0"/>
      <feBlend mode="normal" in2="BackgroundImageFix" result="effect1_dropShadow_0_1"/>
      <feBlend mode="normal" in="SourceGraphic" in2="effect1_dropShadow_0_1" result="shape"/>
    </filter>
  </defs>

  <rect width="512" height="512" rx="120" fill="url(#bg)"/>

  <circle cx="126" cy="120" r="40" fill="#FDE0B6"/>
  <circle cx="406" cy="130" r="34" fill="#D6E7F6"/>
  <circle cx="418" cy="394" r="48" fill="#D9F2E7"/>

  <g filter="url(#shadow)">
    <path d="M186 188L138 128C129.6 117.5 132.9 101.9 145 96.1L195 72.2C208.2 65.9 223.5 72.4 228.5 86.1L248 139L186 188Z" fill="#243244"/>
    <path d="M326 188L374 128C382.4 117.5 379.1 101.9 367 96.1L317 72.2C303.8 65.9 288.5 72.4 283.5 86.1L264 139L326 188Z" fill="#243244"/>

    <path d="M191 176L160 136C155.8 130.6 157.5 122.9 163.7 119.9L196.2 104.3C202.8 101.1 210.4 104.4 213 111.4L226 145.7L191 176Z" fill="#FF8A76"/>
    <path d="M321 176L352 136C356.2 130.6 354.5 122.9 348.3 119.9L315.8 104.3C309.2 101.1 301.6 104.4 299 111.4L286 145.7L321 176Z" fill="#FF8A76"/>

    <circle cx="256" cy="256" r="136" fill="url(#fur)"/>
    <path d="M194 314C218.5 332.7 289.5 332.7 318 314V248H194V314Z" fill="url(#muzzle)"/>
    <ellipse cx="210" cy="228" rx="18" ry="24" fill="#1A2430"/>
    <ellipse cx="302" cy="228" rx="18" ry="24" fill="#1A2430"/>
    <circle cx="216" cy="220" r="5" fill="#FFFFFF"/>
    <circle cx="308" cy="220" r="5" fill="#FFFFFF"/>
    <path d="M256 250L236 286H276L256 250Z" fill="#1A2430"/>
    <path d="M231 301C244.4 317 267.6 317 281 301" stroke="#1A2430" stroke-width="9" stroke-linecap="round"/>
    <path d="M208 186C218.5 177.3 233.8 173 246 174" stroke="#243244" stroke-width="8" stroke-linecap="round"/>
    <path d="M304 186C293.5 177.3 278.2 173 266 174" stroke="#243244" stroke-width="8" stroke-linecap="round"/>

    <path d="M121 308C121 291.4 134.4 278 151 278H178C194.6 278 208 291.4 208 308V313" stroke="#3B5D7A" stroke-width="10" stroke-linecap="round"/>
    <circle cx="121" cy="308" r="13" fill="#4E88F0"/>
    <circle cx="151" cy="278" r="13" fill="#6BC9A0"/>
    <circle cx="208" cy="313" r="13" fill="#F06A4C"/>

    <path d="M304 343H377C392.5 343 405 330.5 405 315V285" stroke="#3B5D7A" stroke-width="10" stroke-linecap="round"/>
    <circle cx="304" cy="343" r="13" fill="#F5B84C"/>
    <circle cx="405" cy="285" r="13" fill="#4E88F0"/>
    <circle cx="377" cy="343" r="13" fill="#6BC9A0"/>

    <circle cx="256" cy="256" r="136" stroke="#243244" stroke-width="10"/>
  </g>
</svg>
